<svg width="121" height="64" viewBox="0 0 121 64" fill="none" xmlns="http://www.w3.org/2000/svg">
<path d="M7.658 31C6.062 31 4.816 30.678 3.92 30.034C3.03333 29.39 2.478 28.396 2.254 27.052C2.21667 26.6413 2.30067 26.3333 2.506 26.128C2.71133 25.9227 3.01 25.82 3.402 25.82C3.794 25.82 4.07867 25.9133 4.256 26.1C4.44267 26.2867 4.56867 26.576 4.634 26.968C4.774 27.612 5.07267 28.0553 5.53 28.298C5.99667 28.5313 6.706 28.648 7.658 28.648H11.69C12.894 28.648 13.7107 28.4333 14.14 28.004C14.5787 27.5653 14.798 26.7533 14.798 25.568C14.798 24.364 14.574 23.5427 14.126 23.104C13.678 22.656 12.866 22.432 11.69 22.432H8.218C6.454 22.432 5.14267 22.0027 4.284 21.144C3.43467 20.276 3.01 18.96 3.01 17.196C3.01 15.4413 3.43 14.1393 4.27 13.29C5.11933 12.4407 6.426 12.016 8.19 12.016H11.522C13.006 12.016 14.168 12.3193 15.008 12.926C15.8573 13.5327 16.394 14.4613 16.618 15.712C16.674 16.1133 16.5993 16.4213 16.394 16.636C16.1887 16.8413 15.8807 16.944 15.47 16.944C15.0967 16.944 14.8167 16.846 14.63 16.65C14.4433 16.454 14.322 16.1693 14.266 15.796C14.1167 15.2453 13.832 14.872 13.412 14.676C12.992 14.4707 12.362 14.368 11.522 14.368H8.19C7.07 14.368 6.31867 14.5687 5.936 14.97C5.55333 15.362 5.362 16.104 5.362 17.196C5.362 18.2973 5.558 19.0533 5.95 19.464C6.342 19.8747 7.098 20.08 8.218 20.08H11.69C13.5287 20.08 14.896 20.528 15.792 21.424C16.6973 22.32 17.15 23.7013 17.15 25.568C17.15 27.4253 16.702 28.7973 15.806 29.684C14.91 30.5613 13.538 31 11.69 31H7.658Z" fill="#F8FAFC"/>
<path d="M88.658 53C87.062 53 85.816 52.678 84.92 52.034C84.0333 51.39 83.478 50.396 83.254 49.052C83.2167 48.6413 83.3007 48.3333 83.506 48.128C83.7113 47.9227 84.01 47.82 84.402 47.82C84.794 47.82 85.0787 47.9133 85.256 48.1C85.4427 48.2867 85.5687 48.576 85.634 48.968C85.774 49.612 86.0727 50.0553 86.53 50.298C86.9967 50.5313 87.706 50.648 88.658 50.648H92.69C93.894 50.648 94.7107 50.4333 95.14 50.004C95.5787 49.5653 95.798 48.7533 95.798 47.568C95.798 46.364 95.574 45.5427 95.126 45.104C94.678 44.656 93.866 44.432 92.69 44.432H89.218C87.454 44.432 86.1427 44.0027 85.284 43.144C84.4347 42.276 84.01 40.96 84.01 39.196C84.01 37.4413 84.43 36.1393 85.27 35.29C86.1193 34.4407 87.426 34.016 89.19 34.016H92.522C94.006 34.016 95.168 34.3193 96.008 34.926C96.8573 35.5327 97.394 36.4613 97.618 37.712C97.674 38.1133 97.5993 38.4213 97.394 38.636C97.1887 38.8413 96.8807 38.944 96.47 38.944C96.0967 38.944 95.8167 38.846 95.63 38.65C95.4433 38.454 95.322 38.1693 95.266 37.796C95.1167 37.2453 94.832 36.872 94.412 36.676C93.992 36.4707 93.362 36.368 92.522 36.368H89.19C88.07 36.368 87.3187 36.5687 86.936 36.97C86.5533 37.362 86.362 38.104 86.362 39.196C86.362 40.2973 86.558 41.0533 86.95 41.464C87.342 41.8747 88.098 42.08 89.218 42.08H92.69C94.5287 42.08 95.896 42.528 96.792 43.424C97.6973 44.32 98.15 45.7013 98.15 47.568C98.15 49.4253 97.702 50.7973 96.806 51.684C95.91 52.5613 94.538 53 92.69 53H88.658Z" fill="#F8FAFC"/>
<path d="M27.088 53C26.304 53 25.912 52.608 25.912 51.824V35.192C25.912 34.408 26.304 34.016 27.088 34.016C27.872 34.016 28.264 34.408 28.264 35.192V41.842L35.404 34.464C35.9453 33.8853 36.496 33.876 37.056 34.436C37.6347 34.9773 37.644 35.528 37.084 36.088L31.134 42.234L38.148 50.956C38.624 51.5813 38.568 52.132 37.98 52.608C37.3733 53.1027 36.8227 53.0467 36.328 52.44L29.482 43.956L28.264 45.216V51.824C28.264 52.608 27.872 53 27.088 53Z" fill="#F8FAFC"/>
<path d="M30.596 31C30.204 31 29.91 30.902 29.714 30.706C29.518 30.51 29.42 30.216 29.42 29.824V14.396H23.988C23.596 14.396 23.302 14.298 23.106 14.102C22.91 13.906 22.812 13.612 22.812 13.22C22.812 12.828 22.91 12.534 23.106 12.338C23.302 12.142 23.596 12.044 23.988 12.044H37.204C37.596 12.044 37.89 12.142 38.086 12.338C38.282 12.534 38.38 12.828 38.38 13.22C38.38 13.612 38.282 13.906 38.086 14.102C37.89 14.298 37.596 14.396 37.204 14.396H31.772V29.824C31.772 30.1973 31.6693 30.4867 31.464 30.692C31.268 30.8973 30.9787 31 30.596 31Z" fill="#F8FAFC"/>
<path d="M111.596 53C111.204 53 110.91 52.902 110.714 52.706C110.518 52.51 110.42 52.216 110.42 51.824V36.396H104.988C104.596 36.396 104.302 36.298 104.106 36.102C103.91 35.906 103.812 35.612 103.812 35.22C103.812 34.828 103.91 34.534 104.106 34.338C104.302 34.142 104.596 34.044 104.988 34.044H118.204C118.596 34.044 118.89 34.142 119.086 34.338C119.282 34.534 119.38 34.828 119.38 35.22C119.38 35.612 119.282 35.906 119.086 36.102C118.89 36.298 118.596 36.396 118.204 36.396H112.772V51.824C112.772 52.1973 112.669 52.4867 112.464 52.692C112.268 52.8973 111.979 53 111.596 53Z" fill="#F8FAFC"/>
<path d="M89.47 31C88.686 31 88.294 30.608 88.294 29.824V24.112L81.882 13.892C81.49 13.22 81.6113 12.6693 82.246 12.24C82.918 11.8293 83.4593 11.9507 83.87 12.604L89.47 21.592L95.35 12.604C95.546 12.296 95.784 12.114 96.064 12.058C96.344 11.9927 96.638 12.072 96.946 12.296C97.6273 12.716 97.7487 13.248 97.31 13.892L90.646 24.112V29.824C90.646 30.608 90.254 31 89.47 31Z" fill="#F8FAFC"/>
<path d="M42 29.3887L60.5 17.4072L79 29.3887" stroke="#FDCC4A" stroke-width="2.5" stroke-linecap="round" stroke-linejoin="round"/>
<path d="M74.8891 35.3887V49.3307C74.8891 50.0526 74.337 50.6378 73.6558 50.6378H47.3447C46.6635 50.6378 46.1113 50.0526 46.1113 49.3307V35.3887" stroke="#3C50E0" stroke-width="2.5" stroke-linecap="round" stroke-linejoin="round"/>
<rect x="57" y="36" width="8" height="8" rx="2" stroke="#3C50E0" stroke-width="2"/>
</svg>
